<svg width="128" height="128" viewBox="0 0 128 128" fill="none" xmlns="http://www.w3.org/2000/svg">
<g clip-path="url(#clip0_2_347)">
<path d="M50.6682 81.6058L44.1837 75.1213C43.0122 73.9497 41.1127 73.9497 39.9411 75.1213L3.23659 111.826C2.06502 112.997 2.06501 114.897 3.23659 116.068L9.72104 122.553C10.8926 123.724 12.7921 123.724 13.9637 122.553L50.6682 85.8484C51.8398 84.6768 51.8398 82.7773 50.6682 81.6058Z" fill="black"/>
<path d="M94.1715 4.82233L92.1776 2.82843C90.6155 1.26633 88.0829 1.26633 86.5208 2.82843L60.8284 28.5208C59.2663 30.0829 59.2663 32.6156 60.8284 34.1777L62.8223 36.1716C64.3844 37.7336 66.9171 37.7337 68.4792 36.1716L94.1715 10.4792C95.7336 8.91708 95.7336 6.38442 94.1715 4.82233Z" fill="black"/>
<path d="M125.171 30.8223L123.177 28.8284C121.615 27.2663 119.083 27.2663 117.521 28.8284L91.8282 54.5208C90.2661 56.0829 90.2661 58.6156 91.8282 60.1777L93.8221 62.1716C95.3842 63.7337 97.9168 63.7336 99.4789 62.1715L125.171 36.4792C126.733 34.9171 126.733 32.3844 125.171 30.8223Z" fill="black"/>
<path d="M109.11 65.3689L62.5696 18.8284C61.0075 17.2663 58.4749 17.2663 56.9128 18.8284L44.9281 30.8131C43.366 32.3752 43.366 34.9079 44.9281 36.47L91.4685 83.0104C93.0306 84.5725 95.5633 84.5725 97.1254 83.0104L109.11 71.0257C110.672 69.4636 110.672 66.9309 109.11 65.3689Z" fill="black"/>
<path d="M104.162 75.9735L51.965 23.7762L42.0997 33.6416L94.2969 85.8388L104.162 75.9735Z" fill="black"/>
<mask id="mask0_2_347" style="mask-type:alpha" maskUnits="userSpaceOnUse" x="-8" y="25" width="126" height="127">
<path d="M117.158 108.668L34.4264 25.9365L-8.00001 68.3629L74.7315 151.094L117.158 108.668Z" fill="#D9D9D9"/>
</mask>
<g mask="url(#mask0_2_347)">
<path d="M70 94.9365C90.4345 94.9365 107 78.371 107 57.9365C107 37.502 90.4345 20.9365 70 20.9365C49.5655 20.9365 33 37.502 33 57.9365C33 78.371 49.5655 94.9365 70 94.9365Z" fill="black"/>
</g>
</g>
<defs>
<clipPath id="clip0_2_347">
<rect width="128" height="128" fill="white"/>
</clipPath>
</defs>
</svg>
