<svg width="128" height="128" viewBox="0 0 128 128" fill="none" xmlns="http://www.w3.org/2000/svg">
<g clip-path="url(#clip0_2_15)">
<mask id="mask0_2_15" style="mask-type:alpha" maskUnits="userSpaceOnUse" x="29" y="9" width="71" height="116">
<path d="M94 9H35C31.6863 9 29 11.6863 29 15V119C29 122.314 31.6863 125 35 125H94C97.3137 125 100 122.314 100 119V15C100 11.6863 97.3137 9 94 9Z" fill="white"/>
</mask>
<g mask="url(#mask0_2_15)">
<path d="M94 9H35C31.6863 9 29 11.6863 29 15V119C29 122.314 31.6863 125 35 125H94C97.3137 125 100 122.314 100 119V15C100 11.6863 97.3137 9 94 9Z" stroke="black" stroke-width="16"/>
</g>
<mask id="mask1_2_15" style="mask-type:alpha" maskUnits="userSpaceOnUse" x="52" y="3" width="24" height="13">
<path d="M72 3H56C53.7909 3 52 4.79086 52 7V12C52 14.2091 53.7909 16 56 16H72C74.2091 16 76 14.2091 76 12V7C76 4.79086 74.2091 3 72 3Z" fill="white"/>
</mask>
<g mask="url(#mask1_2_15)">
<path d="M72 3H56C53.7909 3 52 4.79086 52 7V12C52 14.2091 53.7909 16 56 16H72C74.2091 16 76 14.2091 76 12V7C76 4.79086 74.2091 3 72 3Z" fill="black" stroke="black" stroke-width="13"/>
</g>
<mask id="mask2_2_15" style="mask-type:alpha" maskUnits="userSpaceOnUse" x="42" y="22" width="48" height="86">
<rect x="42" y="22" width="48" height="86" fill="#D9D9D9"/>
</mask>
<g mask="url(#mask2_2_15)">
<path d="M68.3348 75.075C67.2025 78.8913 61.7975 78.8913 60.6652 75.075L50.0029 39.1377C49.2422 36.5738 51.1633 34 53.8376 34L75.1624 34C77.8367 34 79.7578 36.5738 78.9971 39.1378L68.3348 75.075Z" fill="black"/>
<circle cx="64.5" cy="90.5" r="5.5" fill="black"/>
</g>
</g>
<defs>
<clipPath id="clip0_2_15">
<rect width="128" height="128" fill="white"/>
</clipPath>
</defs>
</svg>
