<svg width="128" height="128" viewBox="0 0 128 128" fill="none" xmlns="http://www.w3.org/2000/svg">
<g clip-path="url(#clip0_2_253)">
<mask id="mask0_2_253" style="mask-type:alpha" maskUnits="userSpaceOnUse" x="29" y="9" width="71" height="116">
<path d="M94 9H35C31.6863 9 29 11.6863 29 15V119C29 122.314 31.6863 125 35 125H94C97.3137 125 100 122.314 100 119V15C100 11.6863 97.3137 9 94 9Z" fill="white"/>
</mask>
<g mask="url(#mask0_2_253)">
<path d="M94 9H35C31.6863 9 29 11.6863 29 15V119C29 122.314 31.6863 125 35 125H94C97.3137 125 100 122.314 100 119V15C100 11.6863 97.3137 9 94 9Z" stroke="black" stroke-width="16"/>
</g>
<mask id="mask1_2_253" style="mask-type:alpha" maskUnits="userSpaceOnUse" x="52" y="3" width="24" height="13">
<path d="M72 3H56C53.7909 3 52 4.79086 52 7V12C52 14.2091 53.7909 16 56 16H72C74.2091 16 76 14.2091 76 12V7C76 4.79086 74.2091 3 72 3Z" fill="white"/>
</mask>
<g mask="url(#mask1_2_253)">
<path d="M72 3H56C53.7909 3 52 4.79086 52 7V12C52 14.2091 53.7909 16 56 16H72C74.2091 16 76 14.2091 76 12V7C76 4.79086 74.2091 3 72 3Z" fill="black" stroke="black" stroke-width="13"/>
</g>
<mask id="mask2_2_253" style="mask-type:alpha" maskUnits="userSpaceOnUse" x="17" y="0" width="88" height="125">
<rect x="17" width="88" height="125" fill="black"/>
</mask>
<g mask="url(#mask2_2_253)">
<rect x="37" y="93" width="55" height="32" fill="black"/>
</g>
<mask id="mask3_2_253" style="mask-type:alpha" maskUnits="userSpaceOnUse" x="41" y="24" width="47" height="79">
<rect x="41" y="24" width="47" height="79" fill="#D9D9D9"/>
</mask>
<g mask="url(#mask3_2_253)">
<path d="M60.1927 36.7334C60.6851 35.6761 61.7458 35 62.9122 35H76.2933C78.4872 35 79.9391 37.2779 79.0128 39.2666L64.8073 69.7666C64.3149 70.8239 63.2542 71.5 62.0878 71.5H48.7067C46.5128 71.5 45.0609 69.2221 45.9872 67.2334L60.1927 36.7334Z" fill="black"/>
<path d="M67.6927 57.2334C68.1851 56.1761 69.2458 55.5 70.4122 55.5H81.6056C84.2273 55.5 85.5877 58.6264 83.8007 60.5448L54.944 91.5234C54.6608 91.8274 54.2641 92 53.8486 92C52.7539 92 52.0294 90.8634 52.4916 89.871L67.6927 57.2334Z" fill="black"/>
</g>
</g>
<defs>
<clipPath id="clip0_2_253">
<rect width="128" height="128" fill="white"/>
</clipPath>
</defs>
</svg>
