<svg width="128" height="128" viewBox="0 0 128 128" fill="none" xmlns="http://www.w3.org/2000/svg">
<g clip-path="url(#clip0_2_268)">
<mask id="mask0_2_268" style="mask-type:alpha" maskUnits="userSpaceOnUse" x="29" y="9" width="71" height="116">
<path d="M94 9H35C31.6863 9 29 11.6863 29 15V119C29 122.314 31.6863 125 35 125H94C97.3137 125 100 122.314 100 119V15C100 11.6863 97.3137 9 94 9Z" fill="white"/>
</mask>
<g mask="url(#mask0_2_268)">
<path d="M94 9H35C31.6863 9 29 11.6863 29 15V119C29 122.314 31.6863 125 35 125H94C97.3137 125 100 122.314 100 119V15C100 11.6863 97.3137 9 94 9Z" stroke="black" stroke-width="16"/>
</g>
<mask id="mask1_2_268" style="mask-type:alpha" maskUnits="userSpaceOnUse" x="52" y="3" width="24" height="13">
<path d="M72 3H56C53.7909 3 52 4.79086 52 7V12C52 14.2091 53.7909 16 56 16H72C74.2091 16 76 14.2091 76 12V7C76 4.79086 74.2091 3 72 3Z" fill="white"/>
</mask>
<g mask="url(#mask1_2_268)">
<path d="M72 3H56C53.7909 3 52 4.79086 52 7V12C52 14.2091 53.7909 16 56 16H72C74.2091 16 76 14.2091 76 12V7C76 4.79086 74.2091 3 72 3Z" fill="black" stroke="black" stroke-width="13"/>
</g>
<mask id="mask2_2_268" style="mask-type:alpha" maskUnits="userSpaceOnUse" x="35" y="29" width="59" height="88">
<rect x="35" y="29" width="59" height="88" fill="#D9D9D9"/>
</mask>
<g mask="url(#mask2_2_268)">
<path fill-rule="evenodd" clip-rule="evenodd" d="M60.4896 39.7334C60.982 38.6761 62.0427 38 63.2091 38H76.5902C78.7841 38 80.236 40.2779 79.3097 42.2666L71.7489 58.5H81.9025C84.5242 58.5 85.8846 61.6264 84.0976 63.5448L79.016 69H46.8585L60.4896 39.7334ZM46.8585 69H37V125H92V69H79.016L55.2409 94.5234C54.9577 94.8274 54.561 95 54.1455 95C53.0508 95 52.3263 93.8634 52.7885 92.871L61.3448 74.5H49.0036C46.8097 74.5 45.3578 72.2221 46.2841 70.2334L46.8585 69Z" fill="black"/>
</g>
</g>
<defs>
<clipPath id="clip0_2_268">
<rect width="128" height="128" fill="white"/>
</clipPath>
</defs>
</svg>
