<svg width="128" height="128" viewBox="0 0 128 128" fill="none" xmlns="http://www.w3.org/2000/svg">
<g clip-path="url(#clip0_2_55)">
<mask id="mask0_2_55" style="mask-type:alpha" maskUnits="userSpaceOnUse" x="29" y="9" width="71" height="116">
<path d="M94 9H35C31.6863 9 29 11.6863 29 15V119C29 122.314 31.6863 125 35 125H94C97.3137 125 100 122.314 100 119V15C100 11.6863 97.3137 9 94 9Z" fill="white"/>
</mask>
<g mask="url(#mask0_2_55)">
<path d="M94 9H35C31.6863 9 29 11.6863 29 15V119C29 122.314 31.6863 125 35 125H94C97.3137 125 100 122.314 100 119V15C100 11.6863 97.3137 9 94 9Z" stroke="black" stroke-width="16"/>
</g>
<mask id="mask1_2_55" style="mask-type:alpha" maskUnits="userSpaceOnUse" x="52" y="3" width="24" height="13">
<path d="M72 3H56C53.7909 3 52 4.79086 52 7V12C52 14.2091 53.7909 16 56 16H72C74.2091 16 76 14.2091 76 12V7C76 4.79086 74.2091 3 72 3Z" fill="white"/>
</mask>
<g mask="url(#mask1_2_55)">
<path d="M72 3H56C53.7909 3 52 4.79086 52 7V12C52 14.2091 53.7909 16 56 16H72C74.2091 16 76 14.2091 76 12V7C76 4.79086 74.2091 3 72 3Z" fill="black" stroke="black" stroke-width="13"/>
</g>
<mask id="mask2_2_55" style="mask-type:alpha" maskUnits="userSpaceOnUse" x="17" y="0" width="88" height="125">
<rect x="17" width="88" height="125" fill="black"/>
</mask>
<g mask="url(#mask2_2_55)">
<rect x="37" y="69" width="55" height="56" fill="black"/>
</g>
</g>
<defs>
<clipPath id="clip0_2_55">
<rect width="128" height="128" fill="white"/>
</clipPath>
</defs>
</svg>
