<svg width="128" height="128" viewBox="0 0 128 128" fill="none" xmlns="http://www.w3.org/2000/svg">
<g clip-path="url(#clip0_2_83)">
<mask id="mask0_2_83" style="mask-type:alpha" maskUnits="userSpaceOnUse" x="-84" y="-89" width="310" height="302">
<path d="M0.145706 0L128.604 128.459L44.4587 212.605L-84 84.1457L0.145706 0Z" fill="#D9D9D9"/>
<path d="M96.7914 -88.6457L225.25 39.813L141.104 123.959L12.6457 -4.49999L96.7914 -88.6457Z" fill="#D9D9D9"/>
</mask>
<g mask="url(#mask0_2_83)">
<mask id="mask1_2_83" style="mask-type:alpha" maskUnits="userSpaceOnUse" x="10" y="10" width="109" height="109">
<path d="M110 10H19C14.0294 10 10 14.0294 10 19V110C10 114.971 14.0294 119 19 119H110C114.971 119 119 114.971 119 110V19C119 14.0294 114.971 10 110 10Z" fill="white"/>
</mask>
<g mask="url(#mask1_2_83)">
<path d="M110 10H19C14.0294 10 10 14.0294 10 19V110C10 114.971 14.0294 119 19 119H110C114.971 119 119 114.971 119 110V19C119 14.0294 114.971 10 110 10Z" stroke="black" stroke-width="20"/>
<path d="M37 83H11V114H37V83Z" fill="black"/>
<path d="M37 83H11V114H37V83Z" fill="black"/>
<path d="M48 92H17V114H48V92Z" fill="black"/>
<path d="M48 92H17V114H48V92Z" fill="black"/>
<path d="M92 83H118V114H92V83Z" fill="black"/>
<path d="M92 83H118V114H92V83Z" fill="black"/>
<path d="M81 92H112V114H81V92Z" fill="black"/>
<path d="M81 92H112V114H81V92Z" fill="black"/>
<path d="M42 10H30V38H42V10Z" fill="black"/>
<path d="M60 10H48V38H60V10Z" fill="black"/>
<path d="M79 10H67V38H79V10Z" fill="black"/>
<path d="M98 10H86V38H98V10Z" fill="black"/>
</g>
</g>
<mask id="mask2_2_83" style="mask-type:alpha" maskUnits="userSpaceOnUse" x="4" y="3" width="121" height="123">
<rect x="4" y="3" width="121" height="123" fill="#D9D9D9"/>
</mask>
<g mask="url(#mask2_2_83)">
<path d="M11 9L120 118" stroke="black" stroke-width="10" stroke-linecap="round"/>
</g>
</g>
<defs>
<clipPath id="clip0_2_83">
<rect width="128" height="128" fill="white"/>
</clipPath>
</defs>
</svg>
