<svg width="128" height="128" viewBox="0 0 128 128" fill="none" xmlns="http://www.w3.org/2000/svg">
<g clip-path="url(#clip0_2_117)">
<path d="M21 46.7835C21 45.4982 21.6176 44.2912 22.66 43.5393L58.66 17.5729C61.3056 15.6647 65 17.5552 65 20.8171V108.183C65 111.445 61.3056 113.335 58.66 111.427L22.66 85.4607C21.6176 84.7088 21 83.5018 21 82.2165V46.7835Z" fill="black"/>
<path d="M45 40H7C4.23858 40 2 42.2386 2 45V83C2 85.7614 4.23858 88 7 88H45C47.7614 88 50 85.7614 50 83V45C50 42.2386 47.7614 40 45 40Z" fill="black"/>
<path d="M71 42C90.5 48 94 77.5 71 86" stroke="black" stroke-width="8" stroke-linecap="round"/>
</g>
<defs>
<clipPath id="clip0_2_117">
<rect width="128" height="128" fill="white"/>
</clipPath>
</defs>
</svg>
